<?xml version="1.0" encoding="iso-8859-1"?>
<!-- Generator: Adobe Illustrator 18.1.1, SVG Export Plug-In . SVG Version: 6.00 Build 0)  -->
<svg xmlns="http://www.w3.org/2000/svg" xmlns:xlink="http://www.w3.org/1999/xlink" version="1.1" id="Capa_1" x="0px" y="0px" viewBox="0 0 47.5 47.5" style="enable-background:new 0 0 47.5 47.5;" xml:space="preserve" width="512px" height="512px">
<g>
	<path d="M8.708,37.208c2.186,0,3.958,1.772,3.958,3.958c0,2.186-1.772,3.958-3.958,3.958   c-2.186,0-3.958-1.772-3.958-3.958C4.75,38.981,6.522,37.208,8.708,37.208z M35.625,37.208c2.186,0,3.958,1.772,3.958,3.958   c0,2.186-1.772,3.958-3.958,3.958c-2.186,0-3.958-1.772-3.958-3.958C31.667,38.981,33.439,37.208,35.625,37.208z M47.5,40.375   h-6.389c-0.384-2.686-2.694-4.75-5.486-4.75s-5.101,2.064-5.486,4.75H14.194c-0.384-2.686-2.694-4.75-5.486-4.75   s-5.101,2.064-5.486,4.75H0V22.958c0-1.749,1.418-3.167,3.167-3.167h40.375c1.749,0,3.167,1.418,3.167,3.167L47.5,40.375z    M45.521,22.958H42.75v11.083h3.167L45.521,22.958z M39.583,29.292v-6.333h-7.917v6.333H39.583z M30.083,22.958h-7.917v6.333h7.917   V22.958z M20.583,22.958h-7.917v6.333h7.917V22.958z M11.083,22.958H3.167v6.333h7.917V22.958z M32.458,7.125l-4.75-4.75h6.333   l5.542,4.926V2.375h3.167v12.667h-3.167v-4.926l-5.542,4.926h-6.333l4.75-4.75H17.217c-0.703,2.732-3.183,4.75-6.134,4.75   c-3.498,0-6.333-2.835-6.333-6.333s2.836-6.333,6.333-6.333c2.951,0,5.431,2.018,6.134,4.75H32.458z" fill="#FFFFFF"/>
</g>
<g>
</g>
<g>
</g>
<g>
</g>
<g>
</g>
<g>
</g>
<g>
</g>
<g>
</g>
<g>
</g>
<g>
</g>
<g>
</g>
<g>
</g>
<g>
</g>
<g>
</g>
<g>
</g>
<g>
</g>
</svg>
