<?xml version="1.0" encoding="iso-8859-1"?>
<!-- Generator: Adobe Illustrator 18.1.1, SVG Export Plug-In . SVG Version: 6.00 Build 0)  -->
<svg xmlns="http://www.w3.org/2000/svg" xmlns:xlink="http://www.w3.org/1999/xlink" version="1.1" id="Capa_1" x="0px" y="0px" viewBox="0 0 491.287 491.287" style="enable-background:new 0 0 491.287 491.287;" xml:space="preserve" width="512px" height="512px">
<g>
	<g id="Icons_27_">
		<g>
			<path d="M358.844,0h-226.4c-26.797,0-48.541,21.731-48.541,48.548v394.191c0,26.817,21.744,48.548,48.541,48.548h226.399     c26.797,0,48.541-21.73,48.541-48.548V48.548C407.385,21.732,385.641,0,358.844,0z M208.657,461.094h-49.81     c-9.004,0-16.288-7.292-16.288-16.285c0-8.996,7.284-16.288,16.288-16.288h49.81c9.004,0,16.289,7.292,16.289,16.288     C224.946,453.802,217.661,461.094,208.657,461.094z M332.441,461.094h-49.81c-9.004,0-16.289-7.292-16.289-16.285     c0-8.996,7.285-16.288,16.289-16.288h49.81c9.004,0,16.288,7.292,16.288,16.288C348.729,453.802,341.444,461.094,332.441,461.094     z M348.983,374.553c0,5.883-4.77,10.664-10.672,10.664H152.978c-5.902,0-10.672-4.781-10.672-10.664V76.887     c0-5.883,4.77-10.661,10.672-10.661h185.333c5.902,0,10.672,4.778,10.672,10.661V374.553z" fill="#FFFFFF"/>
			<path d="M235.434,235.906c18.893,6.385,27.067,12.503,27.067,22.197c0,10.21-9.973,15.814-24.508,15.814     c-10.48,0-20.342-2.136-28.883-5.201c-3.528-1.254-7.408-0.983-10.718,0.772c-3.292,1.75-5.71,4.813-6.646,8.437l-0.514,1.996     c-2.001,7.817,2.452,15.848,10.148,18.315c8.733,2.799,19.242,4.786,29.966,5.263v11.738c0,6.903,5.598,12.501,12.516,12.501     c6.901,0,12.499-5.598,12.499-12.501v-13.521c29.312-5.096,45.407-24.482,45.407-47.185c0-22.958-12.262-36.985-42.605-47.697     c-21.693-8.161-30.619-13.52-30.619-21.939c0-7.141,5.362-14.284,21.932-14.284c9.433,0,17.116,1.544,23.256,3.427     c3.575,1.105,7.459,0.694,10.734-1.135c3.276-1.838,5.661-4.93,6.597-8.564l0.242-0.925c2.019-7.913-2.706-15.975-10.61-18.057     c-6.331-1.678-13.896-2.896-23.059-3.31v-9.948c0-6.901-5.598-12.5-12.499-12.5c-6.907,0-12.505,5.598-12.505,12.5v11.729     c-27.287,5.362-43.113,22.958-43.113,45.399C189.519,213.975,208.157,226.73,235.434,235.906z" fill="#FFFFFF"/>
		</g>
	</g>
</g>
<g>
</g>
<g>
</g>
<g>
</g>
<g>
</g>
<g>
</g>
<g>
</g>
<g>
</g>
<g>
</g>
<g>
</g>
<g>
</g>
<g>
</g>
<g>
</g>
<g>
</g>
<g>
</g>
<g>
</g>
</svg>
